:SAMPLES-PER-SECOND 30
:FULLY-SPECIFIED
:DEGREES
662
root  -60.8744 34.5595 0.0747775 20.9026 -73.3457 -18.6648
RightUpLeg  -46.2678 -19.1453 9.17002
RightLeg  55.2747 3.54107 5.04588
RightFoot  -10.0304 0.0237636 -8.06747
RightToes  5.82063e-011 0 -3.6325e-017
Spine  101.657 -16.8468 13.7664
Spine1  -16.5851 -0.299228 0.570362
HEad  -38.0633 -8.19555 1.43451
LeftShoulder1  -0.00558892 -17.0811 9.6884
LeftArm  -65.8543 -61.6743 9.8066
LeftForeArm  -9.59789 -14.2291 2.72425
LeftHand  -0.0759831 2.79571 2.77146
RightShoulder  0.0467099 9.99902 -9.2859
RightArm  -48.3482 54.9927 -10.4851
RightForeArm  -35.2626 5.91101 -1.73118
RightHand  -1.48804 15.3868 -8.71522
LeftUpLeg  -44.0735 -7.44991 9.93518
LeftLeg  61.6726 -0.885621 -1.19622
LeftFoot  -18.6446 0.179621 1.06137
LeftToes  2.58842e-009 -1.78069e-010 3.24654e-012
663
root  -60.8128 34.5891 0.0598065 20.6973 -73.2368 -19.0321
RightUpLeg  -45.5213 -19.014 9.05383
RightLeg  54.9379 3.41839 4.79231
RightFoot  -10.0707 0.0158673 -7.84425
RightToes  5.82063e-011 0 -3.6325e-017
Spine  102.05 -17.0926 13.9699
Spine1  -16.8055 -0.117324 0.434527
HEad  -38.9556 -8.08309 1.64138
LeftShoulder1  -0.0812402 -17.4791 10.1
LeftArm  -65.5339 -62.1759 9.25538
LeftForeArm  -9.58638 -13.6036 3.30633
LeftHand  -0.0398916 3.73334 1.44128
RightShoulder  -0.00990689 10.434 -9.76165
RightArm  -47.6211 54.4519 -10.3153
RightForeArm  -35.9561 4.8545 -1.77477
RightHand  -1.53536 15.6482 -8.86759
LeftUpLeg  -43.5046 -7.7436 10.0398
LeftLeg  61.4861 -0.882859 -1.17973
LeftFoot  -18.579 0.176106 1.02133
LeftToes  2.58842e-009 -1.78069e-010 3.24654e-012
664
root  -60.7208 34.5613 0.0319243 20.0816 -73.1549 -18.1046
RightUpLeg  -45.9993 -19.1032 8.95274
RightLeg  54.9203 3.40866 4.77501
RightFoot  -10.1335 0.0141377 -7.78111
RightToes  5.82063e-011 0 -3.6325e-017
Spine  101.232 -16.7847 14.3394
Spine1  -16.4604 0.215544 0.99155
HEad  -40.5064 -8.74802 0.915832
LeftShoulder1  -0.172454 -17.7976 10.5846
LeftArm  -65.4407 -62.9987 8.98339
LeftForeArm  -10.6522 -12.7251 4.02954
LeftHand  -0.0276959 4.63109 0.603364
RightShoulder  -0.0676011 10.9818 -10.2206
RightArm  -47.9932 53.8131 -11.2044
RightForeArm  -34.886 3.41883 -2.1594
RightHand  -1.14839 15.3996 -6.83017
LeftUpLeg  -44.0223 -7.95821 9.89606
LeftLeg  61.4045 -0.88083 -1.17109
LeftFoot  -18.4417 0.155458 0.722079
LeftToes  2.58842e-009 -1.78069e-010 3.24654e-012
665
root  -60.609 34.5539 -0.00444905 19.3038 -72.9787 -17.2657
RightUpLeg  -46.1215 -19.1909 8.84305
RightLeg  54.6729 3.26655 4.51517
RightFoot  -10.2691 0.00308716 -7.71186
RightToes  5.82063e-011 0 -3.6325e-017
Spine  101.124 -16.9285 14.2822
Spine1  -16.9628 -0.00344314 0.697884
HEad  -41.4439 -8.46447 1.33846
LeftShoulder1  -0.183214 -18.0651 10.6284
LeftArm  -64.3324 -63.3365 8.81908
LeftForeArm  -10.9419 -11.8476 4.32961
LeftHand  -0.0332077 4.83553 0.981978
RightShoulder  -0.047341 11.0072 -10.057
RightArm  -48.0623 54.6524 -11.589
RightForeArm  -34.843 1.71279 -2.11664
RightHand  -0.980989 14.942 -6.02944
LeftUpLeg  -44.2394 -8.24269 9.77762
LeftLeg  61.1746 -0.91391 -1.22323
LeftFoot  -18.2021 0.149525 0.672538
LeftToes  2.58842e-009 -1.78069e-010 3.24654e-012
666
root  -60.4976 34.4854 -0.0357719 19.6266 -72.8169 -17.5041
RightUpLeg  -46.5341 -19.2545 9.06717
RightLeg  54.794 3.22226 4.4683
RightFoot  -10.2668 0.00269698 -7.65181
RightToes  5.82063e-011 0 -3.6325e-017
Spine  100.998 -17.1045 14.3622
Spine1  -17.7494 -0.22571 0.398284
HEad  -44.0782 -7.103 2.70805
LeftShoulder1  -0.199714 -18.393 10.7014
LeftArm  -62.5739 -63.302 9.1133
LeftForeArm  -12.7119 -10.9182 4.1294
LeftHand  -0.0457516 4.13176 2.42257
RightShoulder  -0.0322754 10.9584 -9.9388
RightArm  -47.8152 55.5407 -11.2648
RightForeArm  -34.0993 0.439073 -2.11787
RightHand  -1.18426 14.4957 -7.32691
LeftUpLeg  -44.7371 -8.21141 9.94437
LeftLeg  61.3898 -0.994293 -1.3968
LeftFoot  -18.1725 0.151373 0.71064
LeftToes  2.58842e-009 -1.78069e-010 3.24654e-012
667
root  -60.3448 34.4535 -0.108924 18.6328 -72.6353 -16.94
RightUpLeg  -46.3123 -19.276 8.85351
RightLeg  54.7574 3.08584 4.25652
RightFoot  -10.1701 0.00955014 -7.62139
RightToes  5.82063e-011 0 -3.6325e-017
Spine  101.349 -16.8991 14.2155
Spine1  -18.5735 -0.13386 0.720421
HEad  -43.5155 -7.49916 1.37155
LeftShoulder1  -0.0927565 -18.6203 10.137
LeftArm  -60.9264 -63.7294 8.96696
LeftForeArm  -12.6034 -9.96353 3.77575
LeftHand  -0.031575 4.99154 1.33873
RightShoulder  -0.0249149 10.9028 -9.88089
RightArm  -46.9101 56.2756 -10.9448
RightForeArm  -33.1181 -0.733798 -1.8653
RightHand  -1.27859 13.9094 -8.08907
LeftUpLeg  -44.6156 -8.39768 9.83648
LeftLeg  61.3547 -1.07571 -1.55558
LeftFoot  -17.8963 0.152671 0.789461
LeftToes  2.58842e-009 -1.78069e-010 3.24654e-012
668
root  -60.1991 34.4019 -0.174819 18.4096 -72.329 -17.1533
RightUpLeg  -46.0731 -19.5146 8.9478
RightLeg  54.6934 3.07437 4.22868
RightFoot  -10.2805 -3.35108e-005 -7.4734
RightToes  5.82063e-011 0 -3.6325e-017
Spine  101.641 -17.0771 14.0983
Spine1  -19.3902 -0.372659 0.534487
HEad  -43.4606 -6.87866 1.609
LeftShoulder1  0.0078493 -18.7769 9.61774
LeftArm  -60.6814 -64.0553 9.56275
LeftForeArm  -10.5098 -9.11365 3.5669
LeftHand  -0.0292152 5.57923 0.669954
RightShoulder  0.00184694 10.8791 -9.66709
RightArm  -46.8333 57.0988 -10.6618
RightForeArm  -31.1633 -1.94152 -1.91008
RightHand  -0.983317 12.8239 -6.65493
LeftUpLeg  -44.6029 -8.69068 10.0595
LeftLeg  61.4635 -1.16592 -1.74427
LeftFoot  -17.8203 0.138199 0.553096
LeftToes  2.58842e-009 -1.78069e-010 3.24654e-012
669
root  -60.0542 34.3131 -0.205101 19.2575 -71.8991 -18.1065
RightUpLeg  -46.445 -20.1032 9.53528
RightLeg  54.8404 3.17639 4.40672
RightFoot  -10.0524 0.0220506 -7.94782
RightToes  5.82063e-011 0 -3.6325e-017
Spine  101.214 -17.1062 14.3507
Spine1  -19.7574 -0.414084 0.931036
HEad  -43.6942 -6.83233 0.60005
LeftShoulder1  0.0993406 -18.9033 9.15085
LeftArm  -60.9368 -64.3807 10.7176
LeftForeArm  -8.49518 -7.93628 3.35776
LeftHand  -0.0323477 5.11788 1.19986
RightShoulder  0.00253726 10.9925 -9.66399
RightArm  -46.62 57.5357 -10.9997
RightForeArm  -27.3686 -2.67217 -1.89388
RightHand  -0.630964 10.7984 -4.93316
LeftUpLeg  -45.1568 -9.10073 10.5766
LeftLeg  61.8286 -1.15593 -1.75457
LeftFoot  -17.77 0.138674 0.56999
LeftToes  2.58842e-009 -1.78069e-010 3.24654e-012
670
root  -59.8903 34.2778 -0.26766 19.0689 -71.7623 -18.0788
RightUpLeg  -46.6143 -20.5995 9.78615
RightLeg  54.7329 3.31548 4.59833
RightFoot  -9.55495 0.0696184 -8.56768
RightToes  5.82063e-011 0 -3.6325e-017
Spine  100.302 -17.0503 14.2427
Spine1  -18.3514 -0.579002 0.485195
HEad  -43.6575 -7.1257 0.0356955
LeftShoulder1  0.0385332 -19.0618 9.46307
LeftArm  -62.2485 -64.2392 13.49
LeftForeArm  -7.9927 -7.15207 3.16896
LeftHand  -0.0326907 6.03507 0.06535
RightShoulder  0.0314626 11.1094 -9.43883
RightArm  -47.6854 57.8628 -12.6602
RightForeArm  -25.5223 -3.48868 -2.02254
RightHand  -0.628075 9.98649 -5.09979
LeftUpLeg  -45.4442 -9.42145 10.6732
LeftLeg  61.8911 -1.01145 -1.46662
LeftFoot  -17.2214 0.127762 0.477029
LeftToes  2.58842e-009 -1.78069e-010 3.24654e-012
671
root  -59.7661 34.2359 -0.311079 19.6329 -71.628 -18.3719
RightUpLeg  -47.26 -21.2755 10.4082
RightLeg  54.617 3.63278 5.05985
RightFoot  -9.26892 0.098091 -8.85534
RightToes  5.82063e-011 0 -3.6325e-017
Spine  97.7726 -18.4574 13.3707
Spine1  -13.213 -2.94006 -3.04286
HEad  -46.9629 -4.30401 1.95673
LeftShoulder1  0.0102357 -19.0262 9.60471
LeftArm  -65.7361 -61.5411 25.574
LeftForeArm  -12.4841 -5.1645 1.24653
LeftHand  -0.0270572 5.83685 1.14911
RightShoulder  -0.175555 10.9411 -11.0808
RightArm  -51.8017 58.8765 -11.7746
RightForeArm  -24.3206 -3.40112 -3.73367
RightHand  -0.944664 9.96284 -7.50396
LeftUpLeg  -46.135 -9.70617 10.9765
LeftLeg  61.9192 -0.77112 -0.972661
LeftFoot  -16.6935 0.116102 0.340239
LeftToes  2.58842e-009 -1.78069e-010 3.24654e-012
672
root  -59.6695 34.1563 -0.309331 22.6652 -70.8933 -18.7878
RightUpLeg  -50.642 -22.1694 12.2056
RightLeg  54.4481 4.11143 5.7301
RightFoot  -9.14273 0.104579 -8.59629
RightToes  5.82063e-011 0 -3.6325e-017
Spine  93.8533 -16.9806 15.7126
Spine1  -15.1572 -1.31434 -0.304092
HEad  -44.8478 -6.35919 -0.814401
LeftShoulder1  0.291 -18.6791 8.16357
LeftArm  -64.594 -66.0109 15.885
LeftForeArm  -8.57783 -5.41641 3.16214
LeftHand  -0.0321206 6.16792 0.280238
RightShoulder  0.154465 10.7204 -8.4243
RightArm  -48.7388 58.8452 -12.0852
RightForeArm  -22.5892 -2.38007 -2.37332
RightHand  -0.803722 9.12952 -6.7453
LeftUpLeg  -49.6381 -10.5186 12.0745
LeftLeg  62.0463 -0.519398 -0.478041
LeftFoot  -16.0689 0.0935122 -0.0743898
LeftToes  2.58842e-009 -1.78069e-010 3.24654e-012
673
root  -59.562 34.6946 -0.512911 20.2326 -72.0129 -19.3812
RightUpLeg  -45.5204 -22.4389 11.2499
RightLeg  51.282 4.77482 5.97473
RightFoot  -7.66768 0.240292 -9.07959
RightToes  5.82063e-011 0 -3.6325e-017
Spine  96.3903 -14.4536 14.3107
Spine1  -16.1372 0.422605 1.88484
HEad  -42.8394 -7.49226 -3.0428
LeftShoulder1  0.702937 -18.068 5.90884
LeftArm  -57.4313 -68.5568 1.72016
LeftForeArm  -6.28912 -6.78824 4.1724
LeftHand  -0.0189599 5.77226 2.17778
RightShoulder  0.493451 9.80522 -5.41051
RightArm  -45.967 60.1691 -9.26251
RightForeArm  -23.9187 -0.191491 -1.28676
RightHand  -1.31943 10.5935 -9.95955
LeftUpLeg  -44.6008 -10.86 11.6968
LeftLeg  59.1279 -0.223736 0.140263
LeftFoot  -15.0745 0.0732217 -0.526283
LeftToes  2.58842e-009 -1.78069e-010 3.24654e-012
674
root  -59.5104 35.1397 -0.631754 20.9402 -72.3932 -20.1528
RightUpLeg  -43.9748 -22.873 11.7012
RightLeg  48.4575 5.8278 6.63994
RightFoot  -6.27994 0.356185 -9.01838
RightToes  5.82063e-011 0 -3.6325e-017
Spine  94.9756 -13.5864 13.743
Spine1  -15.2123 0.225023 1.34464
HEad  -42.1868 -6.64887 -4.24976
LeftShoulder1  1.31778 -16.8237 2.2649
LeftArm  -49.4189 -69.5787 -6.17387
LeftForeArm  -6.60985 -6.57586 2.60516
LeftHand  -0.0531057 4.08951 2.46086
RightShoulder  0.688935 8.62721 -3.17975
RightArm  -43.5029 62.0106 -2.37059
RightForeArm  -23.183 2.40716 -1.30115
RightHand  -1.55243 11.775 -10.8646
LeftUpLeg  -43.1069 -11.3004 12.1128
LeftLeg  56.4584 0.13138 0.71911
LeftFoot  -13.8437 0.0647797 -0.825845
LeftToes  2.58842e-009 -1.78069e-010 3.24654e-012
